<svg width="72" height="72" viewBox="0 0 72 72" fill="none" xmlns="http://www.w3.org/2000/svg">
<g clip-path="url(#clip0_108_195)">
<path d="M21.1003 18.7C14.2003 3.80003 3.9003 1.50003 2.7003 11C2.0003 16.9 7.1003 22.8 12.8003 27.5C14.7003 23.9 17.5003 20.8 21.1003 18.7Z" fill="#265986"/>
<path d="M2.00015 45.4999C5.30015 48.9999 9.60015 49.3999 13.4002 48.6999C12.0002 46.3999 11.1002 43.6999 10.6002 40.8999C3.20015 39.6999 -2.99985 40.2999 2.00015 45.4999Z" fill="#265986"/>
<path d="M25.2 58.2998C23.8 63.5998 27.8 67.8998 32.3 66.6998C35.3 65.8998 35.4 62.6998 34.7 59.2998C33.9 59.3998 33 59.3998 32.2 59.3998C29.8 59.4998 27.4 59.0998 25.2 58.2998Z" fill="#265986"/>
<path d="M54.1002 35.0999C56.5002 33.9999 59.1002 32.9999 61.5002 31.8999C72.2002 27.4999 73.1002 20.6999 71.7002 17.5999C70.4002 14.6999 62.4002 1.49986 46.7002 20.9999C50.7002 24.5999 53.4002 29.5999 54.1002 35.0999Z" fill="#265986"/>
<path d="M66.9002 55.3002C63.4002 52.9002 56.2002 51.8002 50.5002 49.7002C49.1002 51.9002 47.3002 53.8002 45.2002 55.3002C47.6002 57.2002 50.2002 58.9002 52.4002 60.4002C63.6002 68.3002 68.0002 64.8002 69.0002 63.7002C69.3002 63.3002 69.6002 62.8002 69.8002 62.3002C70.7002 59.8002 69.4002 56.9002 66.9002 55.3002Z" fill="#265986"/>
<path fill-rule="evenodd" clip-rule="evenodd" d="M21.1003 18.7002C17.6003 20.8002 14.7003 23.9002 12.8003 27.5002C19.1003 32.7002 26.1003 36.3002 26.1003 36.3002C25.0003 29.2002 23.2003 23.4002 21.1003 18.7002Z" fill="#36BDEF"/>
<path fill-rule="evenodd" clip-rule="evenodd" d="M10.6001 40.8999C11.0001 43.6999 12.0001 46.2999 13.4001 48.6999C18.8001 47.6999 23.4001 44.3999 23.4001 44.3999C20.2001 42.9999 15.2001 41.5999 10.6001 40.8999Z" fill="#BDD306"/>
<path fill-rule="evenodd" clip-rule="evenodd" d="M25.2002 58.3C27.4002 59.1 29.8002 59.5 32.2002 59.5C33.1002 59.5 33.9002 59.4 34.7002 59.4C33.8002 55.1 31.4002 50.5 31.4002 50.5C27.8002 53 25.9002 55.8 25.2002 58.3Z" fill="#007BBC"/>
<path fill-rule="evenodd" clip-rule="evenodd" d="M50.4999 49.7001C48.5999 49.0001 46.7999 48.2001 45.4999 47.1001C39.6999 42.6001 45.9999 38.7001 53.9999 35.1001C53.3999 29.5001 50.6999 24.6001 46.6999 21.1001C45.9999 22.0001 45.2999 22.9001 44.5999 23.9001C32.1999 41.0001 37.9999 49.5001 45.1999 55.3001C47.2999 53.8001 49.0999 51.9001 50.4999 49.7001Z" fill="#F2A42F"/>
</g>
<defs>
<clipPath id="clip0_108_195">
<rect width="72" height="72" fill="white"/>
</clipPath>
</defs>
</svg>
